<mxfile host="app.diagrams.net" modified="2021-12-01T05:54:45.716Z" agent="5.0 (Windows NT 10.0; Win64; x64) AppleWebKit/537.36 (KHTML, like Gecko) Chrome/96.0.4664.45 Safari/537.36" etag="1peLyoGEVSDFVtJA8BK7" version="15.8.8" type="github">
  <diagram id="hCLGJKGev1W7oBUGH4i-" name="Page-1">
    <mxGraphModel dx="723" dy="402" grid="1" gridSize="10" guides="1" tooltips="1" connect="1" arrows="1" fold="1" page="1" pageScale="1" pageWidth="850" pageHeight="1100" math="0" shadow="0">
      <root>
        <mxCell id="0" />
        <mxCell id="1" parent="0" />
        <mxCell id="oVczbZmQMfGLakJuoEd0-1" value="KELAS" style="rounded=0;whiteSpace=wrap;html=1;" vertex="1" parent="1">
          <mxGeometry x="120" y="120" width="80" height="40" as="geometry" />
        </mxCell>
        <mxCell id="oVczbZmQMfGLakJuoEd0-2" value="&lt;u&gt;idkelas&lt;/u&gt;" style="ellipse;whiteSpace=wrap;html=1;" vertex="1" parent="1">
          <mxGeometry x="40" y="80" width="80" height="40" as="geometry" />
        </mxCell>
        <mxCell id="oVczbZmQMfGLakJuoEd0-3" value="namakelas" style="ellipse;whiteSpace=wrap;html=1;" vertex="1" parent="1">
          <mxGeometry x="40" y="160" width="80" height="40" as="geometry" />
        </mxCell>
        <mxCell id="oVczbZmQMfGLakJuoEd0-4" value="" style="endArrow=none;html=1;rounded=0;entryX=1;entryY=0.5;entryDx=0;entryDy=0;exitX=0.25;exitY=0;exitDx=0;exitDy=0;" edge="1" parent="1" source="oVczbZmQMfGLakJuoEd0-1" target="oVczbZmQMfGLakJuoEd0-2">
          <mxGeometry width="50" height="50" relative="1" as="geometry">
            <mxPoint x="360" y="280" as="sourcePoint" />
            <mxPoint x="410" y="230" as="targetPoint" />
          </mxGeometry>
        </mxCell>
        <mxCell id="oVczbZmQMfGLakJuoEd0-5" value="" style="endArrow=none;html=1;rounded=0;entryX=0.25;entryY=1;entryDx=0;entryDy=0;exitX=1;exitY=0.5;exitDx=0;exitDy=0;" edge="1" parent="1" source="oVczbZmQMfGLakJuoEd0-3" target="oVczbZmQMfGLakJuoEd0-1">
          <mxGeometry width="50" height="50" relative="1" as="geometry">
            <mxPoint x="360" y="280" as="sourcePoint" />
            <mxPoint x="410" y="230" as="targetPoint" />
          </mxGeometry>
        </mxCell>
        <mxCell id="oVczbZmQMfGLakJuoEd0-6" style="edgeStyle=orthogonalEdgeStyle;rounded=0;orthogonalLoop=1;jettySize=auto;html=1;exitX=0.5;exitY=1;exitDx=0;exitDy=0;entryX=0.5;entryY=0;entryDx=0;entryDy=0;endArrow=none;endFill=0;" edge="1" parent="1" source="oVczbZmQMfGLakJuoEd0-8" target="oVczbZmQMfGLakJuoEd0-11">
          <mxGeometry relative="1" as="geometry" />
        </mxCell>
        <mxCell id="oVczbZmQMfGLakJuoEd0-7" style="orthogonalLoop=1;jettySize=auto;html=1;exitX=1;exitY=0.5;exitDx=0;exitDy=0;entryX=0.5;entryY=0;entryDx=0;entryDy=0;endArrow=none;endFill=0;rounded=0;" edge="1" parent="1" source="oVczbZmQMfGLakJuoEd0-8" target="oVczbZmQMfGLakJuoEd0-12">
          <mxGeometry relative="1" as="geometry" />
        </mxCell>
        <mxCell id="oVczbZmQMfGLakJuoEd0-8" value="GURU" style="rounded=0;whiteSpace=wrap;html=1;" vertex="1" parent="1">
          <mxGeometry x="120" y="360" width="80" height="40" as="geometry" />
        </mxCell>
        <mxCell id="oVczbZmQMfGLakJuoEd0-9" value="&lt;u&gt;idguru&lt;/u&gt;" style="ellipse;whiteSpace=wrap;html=1;" vertex="1" parent="1">
          <mxGeometry x="40" y="400" width="80" height="40" as="geometry" />
        </mxCell>
        <mxCell id="oVczbZmQMfGLakJuoEd0-10" value="" style="endArrow=none;html=1;rounded=0;entryX=0;entryY=0.5;entryDx=0;entryDy=0;exitX=0.5;exitY=0;exitDx=0;exitDy=0;" edge="1" parent="1" source="oVczbZmQMfGLakJuoEd0-9" target="oVczbZmQMfGLakJuoEd0-8">
          <mxGeometry width="50" height="50" relative="1" as="geometry">
            <mxPoint x="320" y="390" as="sourcePoint" />
            <mxPoint x="370" y="340" as="targetPoint" />
          </mxGeometry>
        </mxCell>
        <mxCell id="oVczbZmQMfGLakJuoEd0-11" value="namaguru" style="ellipse;whiteSpace=wrap;html=1;" vertex="1" parent="1">
          <mxGeometry x="120" y="440" width="80" height="40" as="geometry" />
        </mxCell>
        <mxCell id="oVczbZmQMfGLakJuoEd0-12" value="password" style="ellipse;whiteSpace=wrap;html=1;" vertex="1" parent="1">
          <mxGeometry x="200" y="400" width="80" height="40" as="geometry" />
        </mxCell>
        <mxCell id="oVczbZmQMfGLakJuoEd0-13" style="edgeStyle=orthogonalEdgeStyle;rounded=0;orthogonalLoop=1;jettySize=auto;html=1;exitX=0.5;exitY=0;exitDx=0;exitDy=0;entryX=0.5;entryY=1;entryDx=0;entryDy=0;endArrow=none;endFill=0;" edge="1" parent="1" source="oVczbZmQMfGLakJuoEd0-16" target="oVczbZmQMfGLakJuoEd0-19">
          <mxGeometry relative="1" as="geometry" />
        </mxCell>
        <mxCell id="oVczbZmQMfGLakJuoEd0-14" style="orthogonalLoop=1;jettySize=auto;html=1;exitX=1;exitY=0.5;exitDx=0;exitDy=0;entryX=0.5;entryY=1;entryDx=0;entryDy=0;endArrow=none;endFill=0;rounded=0;" edge="1" parent="1" source="oVczbZmQMfGLakJuoEd0-16" target="oVczbZmQMfGLakJuoEd0-20">
          <mxGeometry relative="1" as="geometry" />
        </mxCell>
        <mxCell id="oVczbZmQMfGLakJuoEd0-15" style="edgeStyle=none;rounded=0;orthogonalLoop=1;jettySize=auto;html=1;exitX=0.5;exitY=1;exitDx=0;exitDy=0;entryX=0.5;entryY=0;entryDx=0;entryDy=0;endArrow=none;endFill=0;" edge="1" parent="1" source="oVczbZmQMfGLakJuoEd0-16" target="oVczbZmQMfGLakJuoEd0-21">
          <mxGeometry relative="1" as="geometry" />
        </mxCell>
        <mxCell id="oVczbZmQMfGLakJuoEd0-16" value="PELAJAR" style="rounded=0;whiteSpace=wrap;html=1;" vertex="1" parent="1">
          <mxGeometry x="360" y="120" width="80" height="40" as="geometry" />
        </mxCell>
        <mxCell id="oVczbZmQMfGLakJuoEd0-17" value="&lt;u&gt;idpelajar&lt;/u&gt;" style="ellipse;whiteSpace=wrap;html=1;" vertex="1" parent="1">
          <mxGeometry x="280" y="80" width="80" height="40" as="geometry" />
        </mxCell>
        <mxCell id="oVczbZmQMfGLakJuoEd0-18" value="" style="endArrow=none;html=1;rounded=0;entryX=0;entryY=0.5;entryDx=0;entryDy=0;exitX=0.5;exitY=1;exitDx=0;exitDy=0;" edge="1" parent="1" source="oVczbZmQMfGLakJuoEd0-17" target="oVczbZmQMfGLakJuoEd0-16">
          <mxGeometry width="50" height="50" relative="1" as="geometry">
            <mxPoint x="560" y="150" as="sourcePoint" />
            <mxPoint x="610" y="100" as="targetPoint" />
          </mxGeometry>
        </mxCell>
        <mxCell id="oVczbZmQMfGLakJuoEd0-19" value="namapelajar" style="ellipse;whiteSpace=wrap;html=1;" vertex="1" parent="1">
          <mxGeometry x="360" y="40" width="80" height="40" as="geometry" />
        </mxCell>
        <mxCell id="oVczbZmQMfGLakJuoEd0-20" value="password" style="ellipse;whiteSpace=wrap;html=1;" vertex="1" parent="1">
          <mxGeometry x="440" y="80" width="80" height="40" as="geometry" />
        </mxCell>
        <mxCell id="oVczbZmQMfGLakJuoEd0-21" value="&lt;u&gt;idkelas&lt;/u&gt;" style="ellipse;whiteSpace=wrap;html=1;" vertex="1" parent="1">
          <mxGeometry x="360" y="200" width="80" height="40" as="geometry" />
        </mxCell>
        <mxCell id="oVczbZmQMfGLakJuoEd0-22" style="edgeStyle=none;rounded=0;orthogonalLoop=1;jettySize=auto;html=1;exitX=0.5;exitY=0;exitDx=0;exitDy=0;entryX=0.5;entryY=1;entryDx=0;entryDy=0;endArrow=none;endFill=0;" edge="1" parent="1" source="oVczbZmQMfGLakJuoEd0-27" target="oVczbZmQMfGLakJuoEd0-32">
          <mxGeometry relative="1" as="geometry" />
        </mxCell>
        <mxCell id="oVczbZmQMfGLakJuoEd0-23" style="edgeStyle=none;rounded=0;orthogonalLoop=1;jettySize=auto;html=1;exitX=0.25;exitY=0;exitDx=0;exitDy=0;entryX=1;entryY=0.5;entryDx=0;entryDy=0;endArrow=none;endFill=0;" edge="1" parent="1" source="oVczbZmQMfGLakJuoEd0-27" target="oVczbZmQMfGLakJuoEd0-34">
          <mxGeometry relative="1" as="geometry" />
        </mxCell>
        <mxCell id="oVczbZmQMfGLakJuoEd0-24" style="edgeStyle=none;rounded=0;orthogonalLoop=1;jettySize=auto;html=1;exitX=0.75;exitY=0;exitDx=0;exitDy=0;entryX=0;entryY=0.5;entryDx=0;entryDy=0;endArrow=none;endFill=0;" edge="1" parent="1" source="oVczbZmQMfGLakJuoEd0-27" target="oVczbZmQMfGLakJuoEd0-29">
          <mxGeometry relative="1" as="geometry" />
        </mxCell>
        <mxCell id="oVczbZmQMfGLakJuoEd0-25" style="edgeStyle=none;rounded=0;orthogonalLoop=1;jettySize=auto;html=1;exitX=1;exitY=1;exitDx=0;exitDy=0;entryX=0;entryY=0;entryDx=0;entryDy=0;endArrow=none;endFill=0;" edge="1" parent="1" source="oVczbZmQMfGLakJuoEd0-27" target="oVczbZmQMfGLakJuoEd0-35">
          <mxGeometry relative="1" as="geometry" />
        </mxCell>
        <mxCell id="oVczbZmQMfGLakJuoEd0-26" style="edgeStyle=none;rounded=0;orthogonalLoop=1;jettySize=auto;html=1;exitX=0.5;exitY=1;exitDx=0;exitDy=0;entryX=0.5;entryY=0;entryDx=0;entryDy=0;endArrow=none;endFill=0;" edge="1" parent="1" source="oVczbZmQMfGLakJuoEd0-27" target="oVczbZmQMfGLakJuoEd0-36">
          <mxGeometry relative="1" as="geometry" />
        </mxCell>
        <mxCell id="oVczbZmQMfGLakJuoEd0-27" value="KUIZ" style="rounded=0;whiteSpace=wrap;html=1;" vertex="1" parent="1">
          <mxGeometry x="640" y="120" width="80" height="40" as="geometry" />
        </mxCell>
        <mxCell id="oVczbZmQMfGLakJuoEd0-28" value="" style="group" vertex="1" connectable="0" parent="1">
          <mxGeometry x="720" y="80" width="80" height="40" as="geometry" />
        </mxCell>
        <mxCell id="oVczbZmQMfGLakJuoEd0-29" value="&lt;span&gt;idpelajar&lt;/span&gt;" style="ellipse;whiteSpace=wrap;html=1;fixDash=0;fontStyle=0" vertex="1" parent="oVczbZmQMfGLakJuoEd0-28">
          <mxGeometry width="80" height="40" as="geometry" />
        </mxCell>
        <mxCell id="oVczbZmQMfGLakJuoEd0-30" value="" style="endArrow=none;dashed=1;html=1;rounded=0;" edge="1" parent="oVczbZmQMfGLakJuoEd0-28">
          <mxGeometry width="50" height="50" relative="1" as="geometry">
            <mxPoint x="17" y="24.99999999999997" as="sourcePoint" />
            <mxPoint x="65" y="24.99999999999997" as="targetPoint" />
            <Array as="points" />
          </mxGeometry>
        </mxCell>
        <mxCell id="oVczbZmQMfGLakJuoEd0-31" value="" style="group" vertex="1" connectable="0" parent="1">
          <mxGeometry x="640" y="40" width="80" height="40" as="geometry" />
        </mxCell>
        <mxCell id="oVczbZmQMfGLakJuoEd0-32" value="&lt;span&gt;idsoalan&lt;/span&gt;" style="ellipse;whiteSpace=wrap;html=1;fixDash=0;fontStyle=0" vertex="1" parent="oVczbZmQMfGLakJuoEd0-31">
          <mxGeometry width="80" height="40" as="geometry" />
        </mxCell>
        <mxCell id="oVczbZmQMfGLakJuoEd0-33" value="" style="endArrow=none;dashed=1;html=1;rounded=0;" edge="1" parent="oVczbZmQMfGLakJuoEd0-31">
          <mxGeometry width="50" height="50" relative="1" as="geometry">
            <mxPoint x="17" y="24.99999999999997" as="sourcePoint" />
            <mxPoint x="65" y="24.99999999999997" as="targetPoint" />
            <Array as="points" />
          </mxGeometry>
        </mxCell>
        <mxCell id="oVczbZmQMfGLakJuoEd0-34" value="tarikh" style="ellipse;whiteSpace=wrap;html=1;" vertex="1" parent="1">
          <mxGeometry x="560" y="80" width="80" height="40" as="geometry" />
        </mxCell>
        <mxCell id="oVczbZmQMfGLakJuoEd0-35" value="pilih" style="ellipse;whiteSpace=wrap;html=1;" vertex="1" parent="1">
          <mxGeometry x="720" y="160" width="80" height="40" as="geometry" />
        </mxCell>
        <mxCell id="oVczbZmQMfGLakJuoEd0-36" value="peratus" style="ellipse;whiteSpace=wrap;html=1;" vertex="1" parent="1">
          <mxGeometry x="640" y="200" width="80" height="40" as="geometry" />
        </mxCell>
        <mxCell id="oVczbZmQMfGLakJuoEd0-37" value="SOALAN" style="rounded=0;whiteSpace=wrap;html=1;" vertex="1" parent="1">
          <mxGeometry x="460" y="430" width="80" height="40" as="geometry" />
        </mxCell>
        <mxCell id="oVczbZmQMfGLakJuoEd0-38" value="idsoalan" style="ellipse;whiteSpace=wrap;html=1;fontStyle=4" vertex="1" parent="1">
          <mxGeometry x="345" y="370" width="80" height="40" as="geometry" />
        </mxCell>
        <mxCell id="oVczbZmQMfGLakJuoEd0-39" value="namasoalan" style="ellipse;whiteSpace=wrap;html=1;" vertex="1" parent="1">
          <mxGeometry x="410" y="340" width="80" height="40" as="geometry" />
        </mxCell>
        <mxCell id="oVczbZmQMfGLakJuoEd0-40" value="idtopik" style="ellipse;whiteSpace=wrap;html=1;" vertex="1" parent="1">
          <mxGeometry x="580" y="370" width="80" height="40" as="geometry" />
        </mxCell>
        <mxCell id="oVczbZmQMfGLakJuoEd0-41" value="jenis" style="ellipse;whiteSpace=wrap;html=1;" vertex="1" parent="1">
          <mxGeometry x="600" y="460" width="80" height="40" as="geometry" />
        </mxCell>
        <mxCell id="oVczbZmQMfGLakJuoEd0-42" value="jawapan" style="ellipse;whiteSpace=wrap;html=1;" vertex="1" parent="1">
          <mxGeometry x="540" y="500" width="80" height="40" as="geometry" />
        </mxCell>
        <mxCell id="oVczbZmQMfGLakJuoEd0-43" value="pilihanc" style="ellipse;whiteSpace=wrap;html=1;" vertex="1" parent="1">
          <mxGeometry x="460" y="520" width="80" height="40" as="geometry" />
        </mxCell>
        <mxCell id="oVczbZmQMfGLakJuoEd0-44" value="pilihanb" style="ellipse;whiteSpace=wrap;html=1;" vertex="1" parent="1">
          <mxGeometry x="380" y="500" width="80" height="40" as="geometry" />
        </mxCell>
        <mxCell id="oVczbZmQMfGLakJuoEd0-45" value="pilihana" style="ellipse;whiteSpace=wrap;html=1;" vertex="1" parent="1">
          <mxGeometry x="320" y="460" width="80" height="40" as="geometry" />
        </mxCell>
        <mxCell id="oVczbZmQMfGLakJuoEd0-46" value="idguru" style="ellipse;whiteSpace=wrap;html=1;" vertex="1" parent="1">
          <mxGeometry x="510" y="340" width="80" height="40" as="geometry" />
        </mxCell>
        <mxCell id="oVczbZmQMfGLakJuoEd0-47" value="" style="endArrow=none;dashed=1;html=1;rounded=0;" edge="1" parent="1">
          <mxGeometry width="50" height="50" relative="1" as="geometry">
            <mxPoint x="530" y="366" as="sourcePoint" />
            <mxPoint x="570" y="366" as="targetPoint" />
            <Array as="points" />
          </mxGeometry>
        </mxCell>
        <mxCell id="oVczbZmQMfGLakJuoEd0-48" value="" style="endArrow=none;dashed=1;html=1;rounded=0;" edge="1" parent="1">
          <mxGeometry width="50" height="50" relative="1" as="geometry">
            <mxPoint x="580" y="416" as="sourcePoint" />
            <mxPoint x="620" y="416" as="targetPoint" />
            <Array as="points" />
          </mxGeometry>
        </mxCell>
        <mxCell id="oVczbZmQMfGLakJuoEd0-49" style="edgeStyle=none;rounded=0;orthogonalLoop=1;jettySize=auto;html=1;exitX=0.5;exitY=0;exitDx=0;exitDy=0;entryX=0.5;entryY=1;entryDx=0;entryDy=0;endArrow=none;endFill=0;" edge="1" parent="1" source="oVczbZmQMfGLakJuoEd0-51" target="oVczbZmQMfGLakJuoEd0-52">
          <mxGeometry relative="1" as="geometry" />
        </mxCell>
        <mxCell id="oVczbZmQMfGLakJuoEd0-50" style="edgeStyle=none;rounded=0;orthogonalLoop=1;jettySize=auto;html=1;exitX=0.5;exitY=1;exitDx=0;exitDy=0;entryX=0.5;entryY=0;entryDx=0;entryDy=0;endArrow=none;endFill=0;" edge="1" parent="1" source="oVczbZmQMfGLakJuoEd0-51" target="oVczbZmQMfGLakJuoEd0-53">
          <mxGeometry relative="1" as="geometry" />
        </mxCell>
        <mxCell id="oVczbZmQMfGLakJuoEd0-51" value="TOPIK" style="rounded=0;whiteSpace=wrap;html=1;" vertex="1" parent="1">
          <mxGeometry x="730" y="360" width="80" height="40" as="geometry" />
        </mxCell>
        <mxCell id="oVczbZmQMfGLakJuoEd0-52" value="idtopik" style="ellipse;whiteSpace=wrap;html=1;fontStyle=4" vertex="1" parent="1">
          <mxGeometry x="730" y="280" width="80" height="40" as="geometry" />
        </mxCell>
        <mxCell id="oVczbZmQMfGLakJuoEd0-53" value="namatopik" style="ellipse;whiteSpace=wrap;html=1;" vertex="1" parent="1">
          <mxGeometry x="730" y="440" width="80" height="40" as="geometry" />
        </mxCell>
      </root>
    </mxGraphModel>
  </diagram>
</mxfile>
